<svg id="图层_1" data-name="图层 1" xmlns="http://www.w3.org/2000/svg" viewBox="0 0 32.96 32.89"><defs><style>.cls-1{fill:#9c9c9c;}</style></defs><title>发现</title><path class="cls-1" d="M455.59,579a1,1,0,0,0-.47.39,15.54,15.54,0,0,0-2.12,8.08,15.83,15.83,0,0,0,4.87,11.62,16.39,16.39,0,0,0,4.55,3.3,17.26,17.26,0,0,0,7.06,1.57,16.48,16.48,0,0,0,10-3.37c.55-.47,1.1-1,1.65-1.49a19.13,19.13,0,0,0,3.22-4.39,16.78,16.78,0,0,0,1.57-7.22,16.37,16.37,0,0,0-3.69-10.52V577a8.07,8.07,0,0,0-1.1-1.18A15.63,15.63,0,0,0,469.48,571a14.51,14.51,0,0,0-8.55,2.35c-.24.08-.31.24-.39.47a1.74,1.74,0,0,0,.08.63.79.79,0,0,0,.55.31.69.69,0,0,0,.55-.08,13.18,13.18,0,0,1,7.77-2.12,14.09,14.09,0,0,1,10.6,4.32c.31.31.63.71.94,1a14.37,14.37,0,0,1,3.38,9.5,13.74,13.74,0,0,1-1.49,6.51,14.92,14.92,0,0,1-2.83,4c-.47.47-1,.94-1.49,1.33a15.31,15.31,0,0,1-9.1,3.06,16.77,16.77,0,0,1-6.36-1.41,15.54,15.54,0,0,1-4.16-3,14.28,14.28,0,0,1-4.4-10.52,13.57,13.57,0,0,1,2-7.3.87.87,0,0,0,0-.63c0-.16-.16-.31-.39-.47a1.17,1.17,0,0,0-.55-.08Zm0,0" transform="translate(-453 -571.03)"/><path class="cls-1" d="M469.48,576.84A10.31,10.31,0,0,0,462,579.9a10,10,0,0,0-3.06,7.46,9.89,9.89,0,0,0,3.06,7.46,10.08,10.08,0,0,0,7.46,3.14,10,10,0,0,0,7.46-3.14,10.38,10.38,0,0,0,3-5.34.94.94,0,0,0-.16-.63.49.49,0,0,0-.47-.31.89.89,0,0,0-.63.08,1.64,1.64,0,0,0-.31.47,9.17,9.17,0,0,1-8.87,7.3,9,9,0,0,1-8.95-9,8.84,8.84,0,0,1,8.95-8.95,8.64,8.64,0,0,1,6.36,2.59c.31.31.63.71.94,1a.72.72,0,0,0,.47.31,1.84,1.84,0,0,0,.63-.16.71.71,0,0,0,.24-.55.49.49,0,0,0-.16-.55,13.65,13.65,0,0,0-1-1.18,10.19,10.19,0,0,0-7.46-3.06Zm0,0" transform="translate(-453 -571.03)"/><circle class="cls-1" cx="16.76" cy="16.71" r="5.71"/><circle class="cls-1" cx="5.28" cy="5.67" r="1.87"/><circle class="cls-1" cx="25.81" cy="14.14" r="1.73"/></svg>