<svg id="图层_1" data-name="图层 1" xmlns="http://www.w3.org/2000/svg" viewBox="0 0 32.35 32.76"><title>mubiao</title><path d="M468.65,593.54l-3.15,9a.9.9,0,0,0,.85,1.19h6.29a.9.9,0,0,0,.85-1.19l-3.15-9A.9.9,0,0,0,468.65,593.54Zm.85-2.43" transform="translate(-453.32 -571)"/><path d="M469.9,571c-9.13,0-16.58,7-16.58,16a15.36,15.36,0,0,0,8.35,14,.89.89,0,0,0,1.2-.4l0-.08a.9.9,0,0,0-.39-1.2,14.12,14.12,0,0,1,7-26.54,14.15,14.15,0,0,1,6.71,26.74.87.87,0,0,0-.45,1h0A.87.87,0,0,0,477,601,15.82,15.82,0,0,0,485.67,587c0-9-6.64-16-15.77-16Zm0,0" transform="translate(-453.32 -571)"/><path d="M469.5,577.32a8.89,8.89,0,0,0-9.25,9.13,8.51,8.51,0,0,0,3.92,7.55,1,1,0,0,0,1.38-.36h0a.93.93,0,0,0-.29-1.18,7.24,7.24,0,0,1-3.2-6,7.45,7.45,0,0,1,14.9,0,7.24,7.24,0,0,1-3.38,6.11.94.94,0,0,0-.31,1.21h0a1,1,0,0,0,1.35.38,8.5,8.5,0,0,0,4.14-7.71,9,9,0,0,0-9.25-9.12Zm0,0" transform="translate(-453.32 -571)"/></svg>