<svg id="图层_1" data-name="图层 1" xmlns="http://www.w3.org/2000/svg" xmlns:xlink="http://www.w3.org/1999/xlink" viewBox="0 0 26.1 32.94"><defs><style>.cls-1{fill:none;}.cls-2{clip-path:url(#clip-path);}</style><clipPath id="clip-path" transform="translate(-456.43 -571.02)"><rect class="cls-1" x="456.43" y="571" width="26.13" height="33"/></clipPath></defs><title>tongzhi</title><g class="cls-2"><path d="M482.13,596.8l-2.42-4.24v-8.88a9.56,9.56,0,0,0-1.9-5.5,10.71,10.71,0,0,0-4.92-3.79l0,0a3,3,0,0,0-.45-.13v-.3a2.91,2.91,0,0,0-5.82,0v.28a3.78,3.78,0,0,0-.38.11h0a10.78,10.78,0,0,0-5,3.79,9.63,9.63,0,0,0-1.93,5.54v8.9l-2.59,4.54a1.79,1.79,0,0,0,0,1.77,1.77,1.77,0,0,0,1.52.88h6.38a5,5,0,0,0,9.8,0h6.38a1.76,1.76,0,0,0,1.77-1.76,1.5,1.5,0,0,0-.39-1.18Zm-12.62-24.26a1.38,1.38,0,0,1,1.39,1.31,4.11,4.11,0,0,0-.47-.07.75.75,0,0,0-.21,0h-.07a3.43,3.43,0,0,0-.66-.06,6.14,6.14,0,0,0-.66.06h-.28a3.5,3.5,0,0,0-.43.07,1.4,1.4,0,0,1,1.39-1.31Zm11.29,25.69H458.2a.22.22,0,0,1-.21-.11.28.28,0,0,1,0-.24l2.69-4.75a.85.85,0,0,0,.09-.38v-9.09a9,9,0,0,1,5.91-7.91,15.38,15.38,0,0,1,1.86-.45h.15a2.07,2.07,0,0,1,.34,0,2.5,2.5,0,0,1,.86,0,2.07,2.07,0,0,0,.34,0h.15a17.37,17.37,0,0,1,2,.49,9,9,0,0,1,5.8,7.87v9.09a.85.85,0,0,0,.09.38l2.55,4.51a1,1,0,0,0,.13.17.48.48,0,0,1,.08.17.23.23,0,0,1-.24.26Zm0,0" transform="translate(-456.43 -571.02)"/></g></svg>