<svg id="图层_1" data-name="图层 1" xmlns="http://www.w3.org/2000/svg" xmlns:xlink="http://www.w3.org/1999/xlink" viewBox="0 0 28.58 32.91"><defs><style>.cls-1{fill:none;}.cls-2{clip-path:url(#clip-path);}</style><clipPath id="clip-path" transform="translate(-455.88 -571.03)"><rect class="cls-1" x="455.88" y="571" width="28.63" height="33"/></clipPath></defs><title>paihangbang</title><path d="M470.24,593.57a8.5,8.5,0,0,1-5.25-2.29c-3.33-2.94-5-8.1-5-15.32a4.94,4.94,0,0,1,4.93-4.93h10.65A4.94,4.94,0,0,1,480.5,576c0,7.22-1.69,12.36-5,15.32a8.49,8.49,0,0,1-5.25,2.29Zm-5.32-21.05a3.45,3.45,0,0,0-3.44,3.44c0,15.79,8.36,16.12,8.79,16.12S479,591.75,479,576a3.45,3.45,0,0,0-3.44-3.44Zm0,0" transform="translate(-455.88 -571.03)"/><path d="M470.24,603.94a.75.75,0,0,1-.74-.74V592.83a.74.74,0,1,1,1.49,0V603.2a.75.75,0,0,1-.74.74Zm0,0" transform="translate(-455.88 -571.03)"/><g class="cls-2"><path d="M462.07,587.73a.24.24,0,0,1-.11,0,7.47,7.47,0,0,1-6.05-6.78c-.15-1.94.26-3.24,1.25-3.91,1.49-1,3.54,0,3.76.09a.75.75,0,0,1-.67,1.34c-.37-.19-1.6-.63-2.27-.19s-.67,1.62-.6,2.55a5.86,5.86,0,0,0,4.8,5.42.75.75,0,0,1-.11,1.49Zm0,0" transform="translate(-455.88 -571.03)"/><path d="M478.26,587.73a.74.74,0,0,1-.73-.63.75.75,0,0,1,.61-.86,5.9,5.9,0,0,0,4.8-5.42c.07-.93,0-2.12-.6-2.55s-1.88,0-2.27.19a.75.75,0,1,1-.67-1.34c.22-.11,2.27-1.1,3.76-.09,1,.67,1.41,2,1.25,3.91a7.5,7.5,0,0,1-6,6.78.24.24,0,0,1-.11,0Zm0,0" transform="translate(-455.88 -571.03)"/></g><path d="M479.79,602.35c0,1.6-4.28,1.6-9.56,1.6s-9.56,0-9.56-1.6c0-1.36,4.28-1.6,9.56-1.6S479.79,601,479.79,602.35Z" transform="translate(-455.88 -571.03)"/></svg>